# xmcd
#
# Track frame offsets: 
#        150
#        20720
#        36590
#        51329
#        77510
#        97928
#        119202
#        135948
#        162025
#        175208
#        185760
#        202222
#
# Disc length: 2914 seconds
#
# Revision: 0
# Processed by: cddbd v1.5.2PL0 Copyright (c) Steve Scherf et al.
# Submitted via: ExactAudioCopy v0.99pb4
#
DISCID=aa0b600c
DTITLE=Bernie Marsden - Bernie plays Rory
DYEAR=2009
DGENRE=Blues
TTITLE0=Continental Op
TTITLE1=Blister on the Moon
TTITLE2=Don't Start Me to Talking (Sonny Boy Williamson)
TTITLE3=Going To My Hometown
TTITLE4=Messing With the Kid (Junior Wells)
TTITLE5=Tattooed Lady
TTITLE6=Western Plain (Traditional arr: Marsden)
TTITLE7=I Wonder Who (Muddy Waters)
TTITLE8=What's Goin' On?
TTITLE9=The Loop
TTITLE10=Hands Off
TTITLE11=Wheels Within Wheels
EXTD=
EXTT0=
EXTT1=
EXTT2=
EXTT3=
EXTT4=
EXTT5=
EXTT6=
EXTT7=
EXTT8=
EXTT9=
EXTT10=
EXTT11=
PLAYORDER=
